<svg width="40" height="40" viewBox="0 0 40 40" fill="none" xmlns="http://www.w3.org/2000/svg">
<g filter="url(#filter0_d)">
<path fill-rule="evenodd" clip-rule="evenodd" d="M8 27.0972C8 27.5958 8.40419 28 8.90278 28H24.6972C28.7304 28 32 24.7349 32 20.7071C32 16.7336 28.8178 13.5022 24.8596 13.416C25.064 12.7442 25.1739 12.0314 25.1739 11.2929C25.1739 7.26514 21.9043 4 17.8711 4L8.90278 4C8.40419 4 8 4.40419 8 4.90278L8 27.0972ZM17.8711 13.3786H13.2143L13.2143 9.20722L17.8711 9.20722C19.0246 9.20722 19.9596 10.141 19.9596 11.2929C19.9596 12.4448 19.0246 13.3786 17.8711 13.3786ZM24.6972 22.7928L13.2143 22.7928V18.6214H24.6972C25.8507 18.6214 26.7857 19.5552 26.7857 20.7071C26.7857 21.859 25.8507 22.7928 24.6972 22.7928Z" fill="white"/>
</g>
<defs>
<filter id="filter0_d" x="0" y="0" width="40" height="40" filterUnits="userSpaceOnUse" color-interpolation-filters="sRGB">
<feFlood flood-opacity="0" result="BackgroundImageFix"/>
<feColorMatrix in="SourceAlpha" type="matrix" values="0 0 0 0 0 0 0 0 0 0 0 0 0 0 0 0 0 0 127 0"/>
<feOffset dy="4"/>
<feGaussianBlur stdDeviation="4"/>
<feColorMatrix type="matrix" values="0 0 0 0 0 0 0 0 0 0 0 0 0 0 0 0 0 0 0.16 0"/>
<feBlend mode="normal" in2="BackgroundImageFix" result="effect1_dropShadow"/>
<feBlend mode="normal" in="SourceGraphic" in2="effect1_dropShadow" result="shape"/>
</filter>
</defs>
</svg>
